<svg width="33" height="33" viewBox="0 0 33 33" fill="none" xmlns="http://www.w3.org/2000/svg">
<g clip-path="url(#clip0_1_2264)">
<path d="M28.3198 9.11671C27.4203 9.49635 26.4661 9.74555 25.4891 9.85602C26.5068 9.27494 27.2882 8.35478 27.6561 7.25841C26.6887 7.80533 25.6303 8.19067 24.5265 8.39778C23.6275 7.4853 22.3467 6.91504 20.9291 6.91504C18.2073 6.91504 16.0005 9.0173 16.0005 11.6102C16.0005 11.9782 16.0442 12.3365 16.1281 12.6802C12.0322 12.4844 8.40066 10.6152 5.96981 7.7745C5.54567 8.46795 5.30263 9.27458 5.30263 10.1349C5.30263 11.7639 6.17278 13.201 7.49513 14.043C6.71249 14.0197 5.94706 13.8183 5.26275 13.4557C5.26247 13.4753 5.26247 13.495 5.26247 13.5148C5.26247 15.7897 6.9613 17.6874 9.21582 18.1187C8.49008 18.3067 7.72882 18.3343 6.9902 18.1992C7.61731 20.0645 9.43747 21.4219 11.594 21.4599C9.90731 22.7192 7.78218 23.4698 5.47323 23.4698C5.07536 23.4698 4.68312 23.4476 4.29755 23.4042C6.4786 24.7364 9.06916 25.5137 11.8524 25.5137C20.9177 25.5137 25.8748 18.3592 25.8748 12.1547C25.8748 11.951 25.8701 11.7486 25.8605 11.5472C26.8254 10.8827 27.6582 10.0597 28.3198 9.11671Z" fill="white"/>
</g>
<defs>
<clipPath id="clip0_1_2264">
<rect width="24.0223" height="18.684" fill="white" transform="translate(4.29767 6.84082)"/>
</clipPath>
</defs>
</svg>
