<svg width="33" height="33" viewBox="0 0 33 33" fill="none" xmlns="http://www.w3.org/2000/svg">
<g clip-path="url(#clip0_1_2260)">
<path d="M10.8629 25.5254V12.0189H6.28493V25.5254H10.8629ZM8.57451 10.1737C10.1709 10.1737 11.1646 9.13658 11.1646 7.8405C11.1349 6.51519 10.171 5.50684 8.60481 5.50684C7.03886 5.50684 6.01483 6.51521 6.01483 7.8405C6.01483 9.13664 7.00828 10.1737 8.54463 10.1737H8.57437H8.57451ZM13.3968 25.5254H17.9748V17.9827C17.9748 17.579 18.0045 17.1758 18.1254 16.8872C18.4564 16.0807 19.2096 15.2454 20.4743 15.2454C22.1308 15.2454 22.7936 16.4839 22.7936 18.2996V25.5253H27.3713V17.7808C27.3713 13.6321 25.1127 11.7018 22.1007 11.7018C19.6311 11.7018 18.5467 13.0555 17.9443 13.9775H17.9749V12.0186H13.3969C13.457 13.286 13.3969 25.5251 13.3969 25.5251L13.3968 25.5254Z" fill="white"/>
</g>
<defs>
<clipPath id="clip0_1_2260">
<rect width="21.3531" height="20.0185" fill="white" transform="translate(6.01483 5.50684)"/>
</clipPath>
</defs>
</svg>
