<svg width="33" height="33" viewBox="0 0 33 33" fill="none" xmlns="http://www.w3.org/2000/svg">
<g clip-path="url(#clip0_1_2256)">
<path d="M16.7445 10.7893C13.7131 10.7893 11.268 13.1962 11.268 16.1802C11.268 19.1642 13.7131 21.5712 16.7445 21.5712C19.7759 21.5712 22.221 19.1642 22.221 16.1802C22.221 13.1962 19.7759 10.7893 16.7445 10.7893ZM16.7445 19.685C14.7856 19.685 13.1841 18.1133 13.1841 16.1802C13.1841 14.2472 14.7808 12.6754 16.7445 12.6754C18.7082 12.6754 20.305 14.2472 20.305 16.1802C20.305 18.1133 18.7035 19.685 16.7445 19.685ZM23.7224 10.5688C23.7224 11.2679 23.1505 11.8262 22.445 11.8262C21.7349 11.8262 21.1677 11.2632 21.1677 10.5688C21.1677 9.8744 21.7396 9.31138 22.445 9.31138C23.1505 9.31138 23.7224 9.8744 23.7224 10.5688ZM27.3496 11.845C27.2686 10.1606 26.8777 8.6686 25.6242 7.43934C24.3754 6.21007 22.8597 5.82534 21.1486 5.74089C19.3851 5.64236 14.0992 5.64236 12.3357 5.74089C10.6293 5.82065 9.11365 6.20538 7.86011 7.43464C6.60657 8.66391 6.22049 10.1559 6.1347 11.8403C6.03461 13.5763 6.03461 18.7795 6.1347 20.5155C6.21573 22.1999 6.60657 23.6919 7.86011 24.9211C9.11365 26.1504 10.6246 26.5351 12.3357 26.6196C14.0992 26.7181 19.3851 26.7181 21.1486 26.6196C22.8597 26.5398 24.3754 26.1551 25.6242 24.9211C26.873 23.6919 27.2638 22.1999 27.3496 20.5155C27.4497 18.7795 27.4497 13.581 27.3496 11.845ZM25.0713 22.3782C24.6995 23.2978 23.9798 24.0062 23.0408 24.3769C21.6348 24.9258 18.2983 24.7991 16.7445 24.7991C15.1907 24.7991 11.8495 24.9211 10.4482 24.3769C9.51402 24.0109 8.79431 23.3025 8.41777 22.3782C7.86011 20.9941 7.9888 17.7098 7.9888 16.1802C7.9888 14.6507 7.86487 11.3617 8.41777 9.98231C8.78954 9.06271 9.50925 8.35424 10.4482 7.98359C11.8543 7.43464 15.1907 7.56132 16.7445 7.56132C18.2983 7.56132 21.6395 7.43934 23.0408 7.98359C23.975 8.34955 24.6947 9.05802 25.0713 9.98231C25.6289 11.3664 25.5003 14.6507 25.5003 16.1802C25.5003 17.7098 25.6289 20.9988 25.0713 22.3782Z" fill="white"/>
</g>
<defs>
<clipPath id="clip0_1_2256">
<rect width="21.3531" height="24.0222" fill="white" transform="translate(6.06366 4.17285)"/>
</clipPath>
</defs>
</svg>
